<mxfile host="app.diagrams.net" modified="2021-09-22T14:02:13.121Z" agent="5.0 (X11; Linux x86_64) AppleWebKit/537.36 (KHTML, like Gecko) Chrome/92.0.4515.159 Safari/537.36" etag="ux4YbI2vV05dFKZrPcZD" version="15.2.9" type="github">
  <diagram id="wlxLn4NdYPPFsu4Hhqa2" name="Page-1">
    <mxGraphModel dx="1422" dy="1976" grid="1" gridSize="10" guides="1" tooltips="1" connect="1" arrows="1" fold="1" page="1" pageScale="1" pageWidth="827" pageHeight="1169" math="0" shadow="0">
      <root>
        <mxCell id="0" />
        <mxCell id="1" parent="0" />
        <mxCell id="MM7-IUT4mL9z5kfX29Ka-3" style="edgeStyle=orthogonalEdgeStyle;rounded=0;orthogonalLoop=1;jettySize=auto;html=1;" edge="1" parent="1" source="rdIUOrEK0i4QHaOV8aC8-1" target="rdIUOrEK0i4QHaOV8aC8-31">
          <mxGeometry relative="1" as="geometry" />
        </mxCell>
        <mxCell id="rdIUOrEK0i4QHaOV8aC8-1" value="Player" style="swimlane;fontStyle=1;align=center;verticalAlign=top;childLayout=stackLayout;horizontal=1;startSize=26;horizontalStack=0;resizeParent=1;resizeParentMax=0;resizeLast=0;collapsible=1;marginBottom=0;" parent="1" vertex="1">
          <mxGeometry x="144" y="390" width="270" height="200" as="geometry" />
        </mxCell>
        <mxCell id="rdIUOrEK0i4QHaOV8aC8-2" value="- name: string&#xa;- playerType: PlayerType" style="text;strokeColor=none;fillColor=none;align=left;verticalAlign=top;spacingLeft=4;spacingRight=4;overflow=hidden;rotatable=0;points=[[0,0.5],[1,0.5]];portConstraint=eastwest;" parent="rdIUOrEK0i4QHaOV8aC8-1" vertex="1">
          <mxGeometry y="26" width="270" height="54" as="geometry" />
        </mxCell>
        <mxCell id="rdIUOrEK0i4QHaOV8aC8-3" value="" style="line;strokeWidth=1;fillColor=none;align=left;verticalAlign=middle;spacingTop=-1;spacingLeft=3;spacingRight=3;rotatable=0;labelPosition=right;points=[];portConstraint=eastwest;" parent="rdIUOrEK0i4QHaOV8aC8-1" vertex="1">
          <mxGeometry y="80" width="270" height="8" as="geometry" />
        </mxCell>
        <mxCell id="rdIUOrEK0i4QHaOV8aC8-4" value="+ setName(name: string): void&#xa;+ setPlayerType(playerType: PlayerType): void" style="text;strokeColor=none;fillColor=none;align=left;verticalAlign=top;spacingLeft=4;spacingRight=4;overflow=hidden;rotatable=0;points=[[0,0.5],[1,0.5]];portConstraint=eastwest;" parent="rdIUOrEK0i4QHaOV8aC8-1" vertex="1">
          <mxGeometry y="88" width="270" height="112" as="geometry" />
        </mxCell>
        <mxCell id="rdIUOrEK0i4QHaOV8aC8-5" value="View" style="swimlane;fontStyle=1;align=center;verticalAlign=top;childLayout=stackLayout;horizontal=1;startSize=26;horizontalStack=0;resizeParent=1;resizeParentMax=0;resizeLast=0;collapsible=1;marginBottom=0;" parent="1" vertex="1">
          <mxGeometry x="580" y="-160" width="160" height="100" as="geometry" />
        </mxCell>
        <mxCell id="rdIUOrEK0i4QHaOV8aC8-7" value="" style="line;strokeWidth=1;fillColor=none;align=left;verticalAlign=middle;spacingTop=-1;spacingLeft=3;spacingRight=3;rotatable=0;labelPosition=right;points=[];portConstraint=eastwest;" parent="rdIUOrEK0i4QHaOV8aC8-5" vertex="1">
          <mxGeometry y="26" width="160" height="8" as="geometry" />
        </mxCell>
        <mxCell id="rdIUOrEK0i4QHaOV8aC8-8" value="+ update()&#xa;+ contextInterface()" style="text;strokeColor=none;fillColor=none;align=left;verticalAlign=top;spacingLeft=4;spacingRight=4;overflow=hidden;rotatable=0;points=[[0,0.5],[1,0.5]];portConstraint=eastwest;" parent="rdIUOrEK0i4QHaOV8aC8-5" vertex="1">
          <mxGeometry y="34" width="160" height="66" as="geometry" />
        </mxCell>
        <mxCell id="MM7-IUT4mL9z5kfX29Ka-2" style="edgeStyle=orthogonalEdgeStyle;rounded=0;orthogonalLoop=1;jettySize=auto;html=1;entryX=0.5;entryY=0;entryDx=0;entryDy=0;" edge="1" parent="1" source="rdIUOrEK0i4QHaOV8aC8-9" target="rdIUOrEK0i4QHaOV8aC8-13">
          <mxGeometry relative="1" as="geometry" />
        </mxCell>
        <mxCell id="MM7-IUT4mL9z5kfX29Ka-6" style="edgeStyle=orthogonalEdgeStyle;rounded=0;orthogonalLoop=1;jettySize=auto;html=1;exitX=0.5;exitY=1;exitDx=0;exitDy=0;" edge="1" parent="1" source="rdIUOrEK0i4QHaOV8aC8-9" target="rdIUOrEK0i4QHaOV8aC8-1">
          <mxGeometry relative="1" as="geometry" />
        </mxCell>
        <mxCell id="MM7-IUT4mL9z5kfX29Ka-9" style="edgeStyle=orthogonalEdgeStyle;rounded=0;orthogonalLoop=1;jettySize=auto;html=1;entryX=0.5;entryY=0;entryDx=0;entryDy=0;" edge="1" parent="1" source="rdIUOrEK0i4QHaOV8aC8-9" target="rdIUOrEK0i4QHaOV8aC8-22">
          <mxGeometry relative="1" as="geometry" />
        </mxCell>
        <mxCell id="rdIUOrEK0i4QHaOV8aC8-9" value="Board" style="swimlane;fontStyle=1;align=center;verticalAlign=top;childLayout=stackLayout;horizontal=1;startSize=26;horizontalStack=0;resizeParent=1;resizeParentMax=0;resizeLast=0;collapsible=1;marginBottom=0;" parent="1" vertex="1">
          <mxGeometry x="70" y="48" width="481" height="162" as="geometry" />
        </mxCell>
        <mxCell id="rdIUOrEK0i4QHaOV8aC8-10" value="- currentTurn: Player&#xa;- gameState: GameState&#xa;- winner: Player&#xa;- cells: Cell[8][8]&#xa;- players: Player[2]" style="text;strokeColor=none;fillColor=none;align=left;verticalAlign=top;spacingLeft=4;spacingRight=4;overflow=hidden;rotatable=0;points=[[0,0.5],[1,0.5]];portConstraint=eastwest;" parent="rdIUOrEK0i4QHaOV8aC8-9" vertex="1">
          <mxGeometry y="26" width="481" height="94" as="geometry" />
        </mxCell>
        <mxCell id="rdIUOrEK0i4QHaOV8aC8-11" value="" style="line;strokeWidth=1;fillColor=none;align=left;verticalAlign=middle;spacingTop=-1;spacingLeft=3;spacingRight=3;rotatable=0;labelPosition=right;points=[];portConstraint=eastwest;" parent="rdIUOrEK0i4QHaOV8aC8-9" vertex="1">
          <mxGeometry y="120" width="481" height="42" as="geometry" />
        </mxCell>
        <mxCell id="rdIUOrEK0i4QHaOV8aC8-13" value="Cell" style="swimlane;fontStyle=1;align=center;verticalAlign=top;childLayout=stackLayout;horizontal=1;startSize=26;horizontalStack=0;resizeParent=1;resizeParentMax=0;resizeLast=0;collapsible=1;marginBottom=0;" parent="1" vertex="1">
          <mxGeometry x="49" y="-140" width="160" height="110" as="geometry" />
        </mxCell>
        <mxCell id="rdIUOrEK0i4QHaOV8aC8-15" value="- value: Player?" style="text;strokeColor=none;fillColor=none;align=left;verticalAlign=top;spacingLeft=4;spacingRight=4;overflow=hidden;rotatable=0;points=[[0,0.5],[1,0.5]];portConstraint=eastwest;" parent="rdIUOrEK0i4QHaOV8aC8-13" vertex="1">
          <mxGeometry y="26" width="160" height="24" as="geometry" />
        </mxCell>
        <mxCell id="rdIUOrEK0i4QHaOV8aC8-14" value="" style="line;strokeWidth=1;fillColor=none;align=left;verticalAlign=middle;spacingTop=-1;spacingLeft=3;spacingRight=3;rotatable=0;labelPosition=right;points=[];portConstraint=eastwest;" parent="rdIUOrEK0i4QHaOV8aC8-13" vertex="1">
          <mxGeometry y="50" width="160" height="6" as="geometry" />
        </mxCell>
        <mxCell id="rdIUOrEK0i4QHaOV8aC8-16" value="+ getValue(): Player?&#xa;+ setValue(): void" style="text;strokeColor=none;fillColor=none;align=left;verticalAlign=top;spacingLeft=4;spacingRight=4;overflow=hidden;rotatable=0;points=[[0,0.5],[1,0.5]];portConstraint=eastwest;" parent="rdIUOrEK0i4QHaOV8aC8-13" vertex="1">
          <mxGeometry y="56" width="160" height="54" as="geometry" />
        </mxCell>
        <mxCell id="rdIUOrEK0i4QHaOV8aC8-22" value="enum GameState" style="swimlane;fontStyle=1;align=center;verticalAlign=middle;childLayout=stackLayout;horizontal=1;startSize=29;horizontalStack=0;resizeParent=1;resizeParentMax=0;resizeLast=0;collapsible=0;marginBottom=0;html=1;" parent="1" vertex="1">
          <mxGeometry x="349" y="260" width="140" height="70" as="geometry" />
        </mxCell>
        <mxCell id="rdIUOrEK0i4QHaOV8aC8-23" value="FINISHED, &lt;br&gt;IN_PROGRESS" style="text;html=1;strokeColor=none;fillColor=none;align=center;verticalAlign=middle;spacingLeft=4;spacingRight=4;overflow=hidden;rotatable=0;points=[[0,0.5],[1,0.5]];portConstraint=eastwest;" parent="rdIUOrEK0i4QHaOV8aC8-22" vertex="1">
          <mxGeometry y="29" width="140" height="41" as="geometry" />
        </mxCell>
        <mxCell id="rdIUOrEK0i4QHaOV8aC8-25" value="GameController" style="swimlane;fontStyle=1;align=center;verticalAlign=top;childLayout=stackLayout;horizontal=1;startSize=26;horizontalStack=0;resizeParent=1;resizeParentMax=0;resizeLast=0;collapsible=1;marginBottom=0;" parent="1" vertex="1">
          <mxGeometry x="710" y="30" width="490" height="180" as="geometry" />
        </mxCell>
        <mxCell id="rdIUOrEK0i4QHaOV8aC8-26" value="- board: Board" style="text;strokeColor=none;fillColor=none;align=left;verticalAlign=top;spacingLeft=4;spacingRight=4;overflow=hidden;rotatable=0;points=[[0,0.5],[1,0.5]];portConstraint=eastwest;" parent="rdIUOrEK0i4QHaOV8aC8-25" vertex="1">
          <mxGeometry y="26" width="490" height="26" as="geometry" />
        </mxCell>
        <mxCell id="rdIUOrEK0i4QHaOV8aC8-27" value="" style="line;strokeWidth=1;fillColor=none;align=left;verticalAlign=middle;spacingTop=-1;spacingLeft=3;spacingRight=3;rotatable=0;labelPosition=right;points=[];portConstraint=eastwest;" parent="rdIUOrEK0i4QHaOV8aC8-25" vertex="1">
          <mxGeometry y="52" width="490" height="8" as="geometry" />
        </mxCell>
        <mxCell id="rdIUOrEK0i4QHaOV8aC8-28" value="+ start(): void&#xa;+ restart(): void&#xa;- isWinningMoveByPlayer(player: Player, currentRow: int, currentColumn: int): bool&#xa;+ mark(row: int, column: int): void&#xa;- clearCells(): void&#xa;- updateBoard(): void&#xa;- flipTurn(): void" style="text;strokeColor=none;fillColor=none;align=left;verticalAlign=top;spacingLeft=4;spacingRight=4;overflow=hidden;rotatable=0;points=[[0,0.5],[1,0.5]];portConstraint=eastwest;" parent="rdIUOrEK0i4QHaOV8aC8-25" vertex="1">
          <mxGeometry y="60" width="490" height="120" as="geometry" />
        </mxCell>
        <mxCell id="rdIUOrEK0i4QHaOV8aC8-29" value="enum Difficulty" style="swimlane;fontStyle=1;align=center;verticalAlign=middle;childLayout=stackLayout;horizontal=1;startSize=29;horizontalStack=0;resizeParent=1;resizeParentMax=0;resizeLast=0;collapsible=0;marginBottom=0;html=1;" parent="1" vertex="1">
          <mxGeometry x="995" y="570" width="140" height="70" as="geometry" />
        </mxCell>
        <mxCell id="rdIUOrEK0i4QHaOV8aC8-30" value="EASY, MEDIUM, HARD" style="text;html=1;strokeColor=none;fillColor=none;align=center;verticalAlign=middle;spacingLeft=4;spacingRight=4;overflow=hidden;rotatable=0;points=[[0,0.5],[1,0.5]];portConstraint=eastwest;" parent="rdIUOrEK0i4QHaOV8aC8-29" vertex="1">
          <mxGeometry y="29" width="140" height="41" as="geometry" />
        </mxCell>
        <mxCell id="rdIUOrEK0i4QHaOV8aC8-31" value="enum PlayerType" style="swimlane;fontStyle=1;align=center;verticalAlign=middle;childLayout=stackLayout;horizontal=1;startSize=29;horizontalStack=0;resizeParent=1;resizeParentMax=0;resizeLast=0;collapsible=0;marginBottom=0;html=1;" parent="1" vertex="1">
          <mxGeometry x="209" y="610" width="140" height="70" as="geometry" />
        </mxCell>
        <mxCell id="rdIUOrEK0i4QHaOV8aC8-32" value="BOT, HUMAN" style="text;html=1;strokeColor=none;fillColor=none;align=center;verticalAlign=middle;spacingLeft=4;spacingRight=4;overflow=hidden;rotatable=0;points=[[0,0.5],[1,0.5]];portConstraint=eastwest;" parent="rdIUOrEK0i4QHaOV8aC8-31" vertex="1">
          <mxGeometry y="29" width="140" height="41" as="geometry" />
        </mxCell>
        <mxCell id="MM7-IUT4mL9z5kfX29Ka-4" style="edgeStyle=orthogonalEdgeStyle;rounded=0;orthogonalLoop=1;jettySize=auto;html=1;" edge="1" parent="1" source="rdIUOrEK0i4QHaOV8aC8-41" target="rdIUOrEK0i4QHaOV8aC8-29">
          <mxGeometry relative="1" as="geometry" />
        </mxCell>
        <mxCell id="rdIUOrEK0i4QHaOV8aC8-41" value="BotController" style="swimlane;fontStyle=1;align=center;verticalAlign=top;childLayout=stackLayout;horizontal=1;startSize=26;horizontalStack=0;resizeParent=1;resizeParentMax=0;resizeLast=0;collapsible=1;marginBottom=0;" parent="1" vertex="1">
          <mxGeometry x="900" y="410" width="330" height="128" as="geometry" />
        </mxCell>
        <mxCell id="rdIUOrEK0i4QHaOV8aC8-42" value="- difficulty: Difficulty&#xa;- board: Board" style="text;strokeColor=none;fillColor=none;align=left;verticalAlign=top;spacingLeft=4;spacingRight=4;overflow=hidden;rotatable=0;points=[[0,0.5],[1,0.5]];portConstraint=eastwest;" parent="rdIUOrEK0i4QHaOV8aC8-41" vertex="1">
          <mxGeometry y="26" width="330" height="44" as="geometry" />
        </mxCell>
        <mxCell id="rdIUOrEK0i4QHaOV8aC8-43" value="" style="line;strokeWidth=1;fillColor=none;align=left;verticalAlign=middle;spacingTop=-1;spacingLeft=3;spacingRight=3;rotatable=0;labelPosition=right;points=[];portConstraint=eastwest;" parent="rdIUOrEK0i4QHaOV8aC8-41" vertex="1">
          <mxGeometry y="70" width="330" height="8" as="geometry" />
        </mxCell>
        <mxCell id="rdIUOrEK0i4QHaOV8aC8-44" value="+ setDifficulty(difficulty: Difficulty): void&#xa;- makeMove(): void" style="text;strokeColor=none;fillColor=none;align=left;verticalAlign=top;spacingLeft=4;spacingRight=4;overflow=hidden;rotatable=0;points=[[0,0.5],[1,0.5]];portConstraint=eastwest;" parent="rdIUOrEK0i4QHaOV8aC8-41" vertex="1">
          <mxGeometry y="78" width="330" height="50" as="geometry" />
        </mxCell>
        <mxCell id="MM7-IUT4mL9z5kfX29Ka-5" value="if not a human use" style="endArrow=open;endSize=12;dashed=1;html=1;exitX=0.51;exitY=1.04;exitDx=0;exitDy=0;exitPerimeter=0;entryX=0.5;entryY=0;entryDx=0;entryDy=0;" edge="1" parent="1" source="rdIUOrEK0i4QHaOV8aC8-28" target="rdIUOrEK0i4QHaOV8aC8-41">
          <mxGeometry x="-0.0988" y="3" width="160" relative="1" as="geometry">
            <mxPoint x="640" y="320" as="sourcePoint" />
            <mxPoint x="800" y="320" as="targetPoint" />
            <Array as="points">
              <mxPoint x="960" y="280" />
              <mxPoint x="1065" y="280" />
            </Array>
            <mxPoint as="offset" />
          </mxGeometry>
        </mxCell>
        <mxCell id="MM7-IUT4mL9z5kfX29Ka-7" value="interacts with" style="endArrow=open;endSize=12;dashed=1;html=1;exitX=0.5;exitY=0;exitDx=0;exitDy=0;entryX=0.429;entryY=0;entryDx=0;entryDy=0;entryPerimeter=0;" edge="1" parent="1" source="rdIUOrEK0i4QHaOV8aC8-5" target="rdIUOrEK0i4QHaOV8aC8-25">
          <mxGeometry x="-0.2941" width="160" relative="1" as="geometry">
            <mxPoint x="640" y="270" as="sourcePoint" />
            <mxPoint x="940" y="-210" as="targetPoint" />
            <Array as="points">
              <mxPoint x="660" y="-190" />
              <mxPoint x="920" y="-190" />
            </Array>
            <mxPoint as="offset" />
          </mxGeometry>
        </mxCell>
        <mxCell id="MM7-IUT4mL9z5kfX29Ka-8" value="change" style="endArrow=open;endSize=12;dashed=1;html=1;exitX=0.5;exitY=0;exitDx=0;exitDy=0;" edge="1" parent="1" source="rdIUOrEK0i4QHaOV8aC8-25">
          <mxGeometry width="160" relative="1" as="geometry">
            <mxPoint x="640" y="220" as="sourcePoint" />
            <mxPoint x="261" y="50" as="targetPoint" />
            <Array as="points">
              <mxPoint x="955" />
              <mxPoint x="260" />
            </Array>
          </mxGeometry>
        </mxCell>
        <mxCell id="MM7-IUT4mL9z5kfX29Ka-10" value="update" style="endArrow=open;endSize=12;dashed=1;html=1;exitX=0.609;exitY=-0.006;exitDx=0;exitDy=0;exitPerimeter=0;entryX=-0.012;entryY=0.121;entryDx=0;entryDy=0;entryPerimeter=0;" edge="1" parent="1" source="rdIUOrEK0i4QHaOV8aC8-9" target="rdIUOrEK0i4QHaOV8aC8-8">
          <mxGeometry x="0.3297" y="-1" width="160" relative="1" as="geometry">
            <mxPoint x="640" y="220" as="sourcePoint" />
            <mxPoint x="800" y="220" as="targetPoint" />
            <Array as="points">
              <mxPoint x="363" y="-120" />
            </Array>
            <mxPoint as="offset" />
          </mxGeometry>
        </mxCell>
      </root>
    </mxGraphModel>
  </diagram>
</mxfile>
